<svg width="235" height="140" viewBox="0 0 235 140" fill="none" xmlns="http://www.w3.org/2000/svg">
<g clip-path="url(#clip0_14443_377)">
<path d="M53.5 80.8381V58.7422H63.3554C67.5556 58.7422 69.7156 61.4273 69.7156 64.3674C69.7156 67.1125 67.9906 69.0026 65.9055 69.4376C68.2906 69.7976 70.1507 72.0927 70.1507 74.8378C70.1507 78.1829 67.9606 80.8381 63.7304 80.8381H53.5ZM64.9154 65.2074C64.9154 63.8424 63.9254 62.8823 62.3353 62.8823H58.2102V67.5175H62.3353C63.9254 67.5175 64.9154 66.6325 64.9154 65.2074ZM65.3505 74.1778C65.3505 72.7827 64.3604 71.6577 62.5304 71.6577H58.2102V76.6979H62.5454C64.2854 76.6979 65.3505 75.7679 65.3505 74.1778Z" fill="white"/>
<path d="M71.4404 74.4334V64.833H75.6706V74.2984C75.6706 76.2035 76.8256 77.5835 79.0757 77.5835C81.2958 77.5835 82.4659 76.2035 82.4659 74.2984V64.833H86.681V74.4184C86.681 78.4385 84.2659 81.2586 79.0907 81.2586C73.9155 81.2586 71.4404 78.4085 71.4404 74.4334Z" fill="white"/>
<path d="M88.0762 80.8386V77.6885L95.2915 68.5082H88.0762V64.833H101.022V67.8481L93.6714 77.1635H101.157V80.8386H88.0762Z" fill="white"/>
<path d="M102.537 80.8377V77.6875L109.752 68.5072H102.537V64.832H115.483V67.8471L108.132 77.1625H115.618V80.8377H102.537Z" fill="white"/>
<path d="M117.192 80.8381V58.7422H132.523V62.8823H121.903V67.5175H129.898V71.6577H121.903V80.8381H117.192Z" fill="white"/>
<path d="M131.083 72.8277C131.083 68.1925 134.533 64.4424 139.363 64.4424C144.164 64.4424 147.374 68.0275 147.374 73.2177V74.2078H135.478C135.778 76.1578 137.368 77.7929 140.083 77.7929C141.448 77.7929 143.293 77.2229 144.329 76.2328L146.219 79.023C144.629 80.478 142.108 81.243 139.633 81.243C134.758 81.243 131.083 77.9579 131.083 72.8277ZM139.363 67.8925C136.753 67.8925 135.613 69.7076 135.448 71.2977H143.338C143.203 69.7676 142.138 67.8925 139.363 67.8925Z" fill="white"/>
<path d="M148.514 72.8277C148.514 68.1925 151.964 64.4424 156.794 64.4424C161.594 64.4424 164.804 68.0275 164.804 73.2177V74.2078H152.909C153.209 76.1578 154.799 77.7929 157.514 77.7929C158.879 77.7929 160.724 77.2229 161.759 76.2328L163.649 79.023C162.059 80.478 159.539 81.243 157.064 81.243C152.189 81.243 148.514 77.9579 148.514 72.8277ZM156.794 67.8925C154.184 67.8925 153.044 69.7076 152.879 71.2977H160.769C160.634 69.7676 159.569 67.8925 156.794 67.8925Z" fill="white"/>
<path d="M166.35 80.8684V64.8027H172.8C177.855 64.8027 181.5 67.8329 181.5 72.828C181.5 77.8082 177.87 80.8684 172.83 80.8684H166.35ZM177.405 72.828C177.405 70.338 175.905 68.2679 172.965 68.2679H170.355V77.4032H172.965C175.77 77.4032 177.405 75.2131 177.405 72.828Z" fill="white"/>
</g>
<defs>
<clipPath id="clip0_14443_377">
<rect width="128" height="22.5159" fill="white" transform="translate(53.5 58.7422)"/>
</clipPath>
</defs>
</svg>
