<svg width="234" height="140" viewBox="0 0 234 140" fill="none" xmlns="http://www.w3.org/2000/svg">
<g clip-path="url(#clip0_14443_367)">
<path d="M128.182 77.8306C122.784 81.7769 114.96 83.8824 108.224 83.8824C98.7782 83.8824 90.2749 80.4173 83.8419 74.6544C83.3365 74.2012 83.7893 73.5836 84.3958 73.9365C91.3384 77.9429 99.9225 80.3532 108.79 80.3532C114.77 80.3532 121.348 79.126 127.397 76.5794C128.311 76.1944 129.075 77.1729 128.182 77.8306Z" fill="white"/>
<path d="M130.427 75.2841C129.739 74.4098 125.866 74.871 124.127 75.0755C123.598 75.1397 123.517 74.6825 123.994 74.3537C127.079 72.2001 132.141 72.8217 132.732 73.5436C133.322 74.2694 132.578 79.3025 129.679 81.7048C129.234 82.0737 128.809 81.8772 129.008 81.3879C129.659 79.7758 131.118 76.1624 130.427 75.2841Z" fill="white"/>
<path d="M124.249 59.1502V57.0567C124.249 56.7399 124.491 56.5273 124.782 56.5273H134.232C134.535 56.5273 134.778 56.7439 134.778 57.0567V58.8494C134.774 59.1502 134.519 59.5432 134.066 60.1648L129.17 67.0988C130.989 67.0547 132.91 67.3234 134.559 68.2458C134.931 68.4543 135.032 68.7591 135.061 69.0599V71.2937C135.061 71.5985 134.721 71.9554 134.365 71.771C131.458 70.259 127.597 70.0946 124.382 71.787C124.055 71.9635 123.711 71.6105 123.711 71.3058V69.1842C123.711 68.8434 123.715 68.2618 124.059 67.7445L129.732 59.6755H124.795C124.491 59.6755 124.249 59.463 124.249 59.1502Z" fill="white"/>
<path d="M89.779 72.2113H86.9041C86.6292 72.1912 86.4108 71.9867 86.3906 71.726V57.092C86.3906 56.7992 86.6373 56.5666 86.9446 56.5666H89.6253C89.9043 56.5786 90.1267 56.7912 90.1469 57.0559V58.9689H90.1995C90.899 57.1201 92.2131 56.2578 93.9841 56.2578C95.7834 56.2578 96.9075 57.1201 97.7162 58.9689C98.4116 57.1201 99.9926 56.2578 101.687 56.2578C102.892 56.2578 104.21 56.7511 105.014 57.858C105.924 59.0892 105.738 60.8778 105.738 62.4459L105.734 71.6819C105.734 71.9747 105.488 72.2113 105.18 72.2113H102.309C102.022 72.1912 101.792 71.9626 101.792 71.6819V63.9257C101.792 63.3081 101.849 61.7681 101.711 61.1826C101.497 60.2001 100.854 59.9233 100.021 59.9233C99.3254 59.9233 98.5976 60.3845 98.3025 61.1225C98.0073 61.8604 98.0356 63.0956 98.0356 63.9257V71.6819C98.0356 71.9747 97.789 72.2113 97.4817 72.2113H94.6108C94.3197 72.1912 94.0933 71.9626 94.0933 71.6819L94.0892 63.9257C94.0892 62.2935 94.3602 59.8913 92.3182 59.8913C90.2521 59.8913 90.3329 62.2333 90.3329 63.9257V71.6819C90.3329 71.9747 90.0863 72.2113 89.779 72.2113Z" fill="white"/>
<path d="M142.914 56.2578C147.18 56.2578 149.488 59.8913 149.488 64.5113C149.488 68.9749 146.937 72.5161 142.914 72.5161C138.725 72.5161 136.444 68.8826 136.444 64.3549C136.444 59.799 138.753 56.2578 142.914 56.2578ZM142.938 59.2456C140.819 59.2456 140.686 62.109 140.686 63.8937C140.686 65.6823 140.658 69.5002 142.914 69.5002C145.142 69.5002 145.247 66.4202 145.247 64.5433C145.247 63.3081 145.194 61.8323 144.818 60.6613C144.495 59.6426 143.852 59.2456 142.938 59.2456Z" fill="white"/>
<path d="M155.019 72.2113H152.156C151.869 72.1912 151.639 71.9626 151.639 71.6819L151.635 57.0439C151.659 56.7752 151.898 56.5666 152.189 56.5666H154.853C155.104 56.5786 155.31 56.7471 155.367 56.9757V59.2135H155.419C156.224 57.2123 157.352 56.2578 159.337 56.2578C160.627 56.2578 161.885 56.719 162.693 57.9823C163.446 59.1533 163.446 61.1225 163.446 62.5381V71.7501C163.413 72.0067 163.175 72.2113 162.892 72.2113H160.009C159.746 72.1912 159.527 71.9987 159.499 71.7501V63.8014C159.499 62.2013 159.685 59.8592 157.7 59.8592C157 59.8592 156.357 60.3244 156.038 61.0302C155.634 61.9245 155.581 62.8149 155.581 63.8014V71.6819C155.577 71.9747 155.326 72.2113 155.019 72.2113Z" fill="white"/>
<path d="M116.716 65.2208V64.6032C114.638 64.6032 112.442 65.0444 112.442 67.4747C112.442 68.7059 113.085 69.5401 114.189 69.5401C114.998 69.5401 115.721 69.0468 116.178 68.2447C116.744 67.2581 116.716 66.3317 116.716 65.2208ZM119.615 72.1709C119.425 72.3394 119.15 72.3514 118.936 72.2391C117.982 71.453 117.812 71.0881 117.286 70.3382C115.709 71.9343 114.593 72.4115 112.547 72.4115C110.129 72.4115 108.245 70.9317 108.245 67.968C108.245 65.654 109.511 64.0779 111.31 63.3079C112.871 62.6261 115.05 62.5058 116.716 62.3173V61.9483C116.716 61.2706 116.769 60.4685 116.368 59.883C116.017 59.3576 115.345 59.141 114.755 59.141C113.659 59.141 112.681 59.6985 112.442 60.8535C112.394 61.1102 112.204 61.3628 111.945 61.3749L109.155 61.0781C108.92 61.0259 108.662 60.8375 108.726 60.4805C109.369 57.1278 112.422 56.1172 115.155 56.1172C116.554 56.1172 118.382 56.4861 119.486 57.5369C120.885 58.8322 120.751 60.5607 120.751 62.4416V66.8852C120.751 68.2206 121.309 68.8062 121.835 69.528C122.021 69.7847 122.061 70.0935 121.827 70.286C121.241 70.7713 120.197 71.6736 119.623 72.1789L119.615 72.1709Z" fill="white"/>
<path d="M79.0276 65.2208V64.6032C76.9492 64.6032 74.7537 65.0444 74.7537 67.4747C74.7537 68.7059 75.3966 69.5401 76.5004 69.5401C77.3091 69.5401 78.0329 69.0468 78.4898 68.2447C79.0559 67.2581 79.0276 66.3317 79.0276 65.2208ZM81.9267 72.1709C81.7366 72.3394 81.4617 72.3514 81.2474 72.2391C80.2931 71.453 80.1233 71.0881 79.5977 70.3382C78.0207 71.9343 76.9048 72.4115 74.8588 72.4115C72.4409 72.4115 70.5566 70.9317 70.5566 67.968C70.5566 65.654 71.8222 64.0779 73.6215 63.3079C75.1823 62.6261 77.3617 62.5058 79.0276 62.3173V61.9483C79.0276 61.2706 79.0801 60.4685 78.6798 59.883C78.328 59.3576 77.6568 59.141 77.0665 59.141C75.9707 59.141 74.9922 59.6985 74.7537 60.8535C74.7052 61.1102 74.5151 61.3628 74.2563 61.3749L71.4664 61.0781C71.2319 61.0259 70.9731 60.8375 71.0378 60.4805C71.6807 57.1278 74.7335 56.1172 77.4668 56.1172C78.8658 56.1172 80.6934 56.4861 81.7973 57.5369C83.1963 58.8322 83.0629 60.5607 83.0629 62.4416V66.8852C83.0629 68.2206 83.6208 68.8062 84.1465 69.528C84.3325 69.7847 84.3729 70.0935 84.1384 70.286C83.5521 70.7713 82.5089 71.6736 81.9347 72.1789L81.9267 72.1709Z" fill="white"/>
</g>
<defs>
<clipPath id="clip0_14443_367">
<rect width="93" height="27.8408" fill="white" transform="translate(70.5 56.0801)"/>
</clipPath>
</defs>
</svg>
