<svg width="235" height="140" viewBox="0 0 235 140" fill="none" xmlns="http://www.w3.org/2000/svg">
<g clip-path="url(#clip0_14443_405)">
<path d="M34.0401 71.5689C34.0134 71.0548 34 70.5263 34 69.9836C34 69.4445 34 68.9125 34.0367 68.409C34.0538 67.9597 34.0928 67.5115 34.1536 67.0665C34.2104 66.535 34.3433 66.0159 34.5478 65.5276C34.7501 65.0458 35.0318 64.6068 35.3794 64.2315C35.7367 63.8496 36.1598 63.5453 36.6252 63.3353C37.1432 63.1038 37.7005 62.9895 38.2618 62.9997C38.7966 62.9969 39.3282 63.0886 39.835 63.2711C40.3171 63.439 40.7619 63.7107 41.1422 64.0693C41.5224 64.4279 41.83 64.8658 42.0461 65.3562C42.2772 65.8919 42.3914 66.4767 42.3801 67.0665V67.3414C42.3799 67.392 42.3704 67.442 42.3521 67.4886C42.3337 67.5352 42.3069 67.5774 42.2732 67.6128C42.2408 67.6523 42.2006 67.6836 42.1556 67.7046C42.1106 67.7256 42.0618 67.7357 42.0127 67.7342H41.014C40.966 67.7339 40.9185 67.7233 40.8743 67.703C40.8301 67.6828 40.7902 67.6533 40.7568 67.6164C40.7223 67.5814 40.6948 67.5393 40.6759 67.4927C40.6569 67.4461 40.647 67.3958 40.6466 67.345V67.0665C40.6459 66.7809 40.589 66.4987 40.4796 66.2382C40.3702 65.9662 40.2073 65.7226 40.002 65.5241C39.7833 65.3126 39.5295 65.1467 39.2538 65.0349C38.9332 64.909 38.5933 64.8485 38.2518 64.8564C37.6855 64.8499 37.1341 65.0502 36.6887 65.4241C36.4566 65.6244 36.2654 65.8736 36.1269 66.1561C35.9885 66.4386 35.9057 66.7485 35.8838 67.0665C35.837 67.4664 35.8003 67.9199 35.7769 68.4305C35.7535 68.941 35.7401 69.4588 35.7401 69.9943C35.7401 70.5299 35.7401 71.0655 35.7769 71.5582C35.8136 72.051 35.837 72.5223 35.8838 72.9222C35.921 73.2103 35.9987 73.4908 36.1142 73.7541C36.2268 74.0241 36.3893 74.267 36.5918 74.4682C36.8019 74.6785 37.0465 74.8456 37.3133 74.9609C37.6148 75.0897 37.9372 75.1528 38.2618 75.1466C38.5632 75.1462 38.8628 75.0969 39.1503 75.0002C39.4242 74.9075 39.6816 74.7663 39.9118 74.5825C40.1461 74.3894 40.3347 74.1402 40.4624 73.8549C40.59 73.5696 40.6531 73.2562 40.6466 72.94V72.6722C40.6483 72.569 40.6877 72.4705 40.7563 72.3978C40.8249 72.3251 40.9174 72.284 41.014 72.283H42.016C42.1124 72.284 42.2046 72.3249 42.2732 72.3973C42.3095 72.4323 42.3382 72.4753 42.3572 72.5235C42.3763 72.5716 42.3852 72.6236 42.3834 72.6758V72.94C42.386 73.4757 42.2836 74.006 42.0828 74.4968C41.8861 74.9864 41.5973 75.4275 41.2344 75.7929C40.8533 76.1742 40.4078 76.4746 39.9218 76.6784C39.3909 76.905 38.8235 77.0178 38.2518 77.0104C37.7303 77.0142 37.2123 76.9187 36.7221 76.7283C36.2636 76.5454 35.8427 76.2689 35.483 75.9143C35.1167 75.5502 34.8166 75.1168 34.5979 74.636C34.3583 74.0977 34.208 73.519 34.1536 72.9257C34.1035 72.5401 34.0668 72.0867 34.0401 71.5689ZM47.5003 76.4534V63.5424C47.4999 63.4911 47.5098 63.4403 47.5294 63.3935C47.549 63.3467 47.5778 63.3049 47.6138 63.2711C47.6458 63.2332 47.685 63.203 47.7288 63.1827C47.7726 63.1624 47.8199 63.1523 47.8677 63.1532H48.8697C48.9172 63.1536 48.9642 63.1643 49.0078 63.1845C49.0514 63.2048 49.0908 63.2342 49.1235 63.2711C49.1583 63.306 49.1863 63.348 49.2057 63.3946C49.2252 63.4411 49.2359 63.4914 49.2371 63.5424V74.7824C49.233 74.8082 49.2348 74.8347 49.2422 74.8597C49.2497 74.8846 49.2626 74.9073 49.2799 74.9258C49.2973 74.9443 49.3185 74.9582 49.3418 74.9661C49.3652 74.9741 49.3899 74.976 49.4141 74.9716H53.5223C53.5701 74.9727 53.6171 74.984 53.6607 75.0049C53.7043 75.0257 53.7436 75.0557 53.7761 75.093C53.8106 75.128 53.8381 75.1701 53.8571 75.2167C53.876 75.2634 53.886 75.3136 53.8864 75.3644V76.4356C53.8872 76.4866 53.8778 76.5372 53.8588 76.584C53.8398 76.6308 53.8116 76.6727 53.7761 76.7069C53.7445 76.7455 53.7054 76.7762 53.6616 76.7972C53.6178 76.8181 53.5703 76.8288 53.5223 76.8283H47.8677C47.7721 76.8224 47.6818 76.7791 47.6141 76.7067C47.5463 76.6343 47.5058 76.5378 47.5003 76.4356V76.4534ZM58.4555 76.4534V63.5424C58.4561 63.4916 58.4661 63.4415 58.485 63.3949C58.5039 63.3483 58.5314 63.3062 58.5657 63.2711C58.5991 63.2341 58.639 63.2046 58.6832 63.1844C58.7273 63.1642 58.7748 63.1536 58.8229 63.1532H64.728C64.7757 63.1523 64.8231 63.1624 64.8669 63.1827C64.9107 63.203 64.9499 63.2332 64.9818 63.2711C65.0179 63.3049 65.0467 63.3467 65.0663 63.3935C65.0859 63.4403 65.0958 63.4911 65.0954 63.5424V64.6136C65.0958 64.6649 65.0859 64.7157 65.0663 64.7625C65.0467 64.8093 65.0179 64.8511 64.9818 64.8849C64.9499 64.9228 64.9107 64.9529 64.8669 64.9733C64.8231 64.9936 64.7757 65.0037 64.728 65.0028H60.386C60.3615 64.9992 60.3366 65.0018 60.3132 65.0102C60.2899 65.0186 60.2686 65.0327 60.2512 65.0514C60.2337 65.0701 60.2205 65.0928 60.2126 65.1178C60.2047 65.1428 60.2023 65.1694 60.2056 65.1956V68.7125C60.2026 68.739 60.205 68.7658 60.2129 68.7911C60.2208 68.8163 60.2338 68.8394 60.2511 68.8586C60.2684 68.8777 60.2895 68.8925 60.3129 68.9019C60.3362 68.9112 60.3612 68.9148 60.386 68.9125H64.5276C64.624 68.9134 64.7162 68.9544 64.7848 69.0267C64.8199 69.0627 64.8478 69.1059 64.8668 69.1538C64.8857 69.2017 64.8953 69.2532 64.895 69.3052V70.3764C64.8951 70.4278 64.8853 70.4787 64.8664 70.526C64.8474 70.5733 64.8197 70.6159 64.7848 70.6513C64.7516 70.6888 64.7117 70.7188 64.6676 70.7396C64.6234 70.7605 64.5759 70.7717 64.5276 70.7727H60.386C60.2658 70.7727 60.2056 70.837 60.2056 70.9727V74.7824C60.2022 74.8084 60.2045 74.835 60.2124 74.8599C60.2203 74.8847 60.2336 74.9073 60.2511 74.9257C60.2687 74.9441 60.29 74.9579 60.3134 74.9659C60.3369 74.9738 60.3617 74.9758 60.386 74.9716H64.7714C64.8192 74.9727 64.8662 74.984 64.9098 75.0049C64.9534 75.0257 64.9927 75.0557 65.0253 75.093C65.0597 75.128 65.0873 75.1701 65.1062 75.2167C65.1251 75.2634 65.1351 75.3136 65.1355 75.3644V76.4356C65.1363 76.4866 65.1269 76.5372 65.1079 76.584C65.0889 76.6308 65.0607 76.6727 65.0253 76.7069C64.9936 76.7455 64.9545 76.7762 64.9107 76.7972C64.8669 76.8181 64.8194 76.8288 64.7714 76.8283H58.8229C58.7743 76.8293 58.7262 76.8189 58.6818 76.7979C58.6373 76.777 58.5977 76.7459 58.5657 76.7069C58.5323 76.6748 58.5054 76.6357 58.4864 76.5922C58.4675 76.5486 58.457 76.5014 58.4555 76.4534ZM69.1234 76.532C69.1202 76.5059 69.1202 76.4795 69.1234 76.4534L72.5369 63.4496C72.5462 63.3637 72.5861 63.285 72.6483 63.2298C72.7105 63.1746 72.7903 63.1471 72.8709 63.1532H74.1501C74.2308 63.1471 74.3105 63.1746 74.3728 63.2298C74.435 63.285 74.4749 63.3637 74.4841 63.4496L77.8876 76.4534C77.8909 76.4795 77.8909 76.5059 77.8876 76.532C77.8826 76.5978 77.8606 76.6608 77.8241 76.7141C77.7855 76.7613 77.7368 76.7979 77.6822 76.8209C77.6276 76.8439 77.5686 76.8526 77.5102 76.8462H76.5082C76.4286 76.8474 76.3512 76.8182 76.29 76.7639C76.2288 76.7096 76.1877 76.6336 76.1742 76.5498L75.3726 73.5613C75.3595 73.4787 75.3179 73.4043 75.2561 73.3528C75.1943 73.3012 75.1167 73.2763 75.0386 73.2828H72.0092C71.932 73.2808 71.8565 73.3074 71.7956 73.3582C71.7347 73.409 71.6922 73.4807 71.6752 73.5613L70.8569 76.5677C70.8434 76.6515 70.8023 76.7274 70.7411 76.7817C70.6798 76.8361 70.6025 76.8653 70.5229 76.864H69.5209C69.4625 76.8704 69.4035 76.8618 69.3489 76.8388C69.2943 76.8158 69.2456 76.7791 69.2069 76.7319C69.1602 76.6763 69.131 76.6063 69.1234 76.532ZM72.233 71.3369C72.233 71.4261 72.2864 71.469 72.3933 71.469H74.6612C74.768 71.469 74.8248 71.4261 74.8248 71.3369C74.8238 71.3071 74.817 71.2779 74.8048 71.2512L73.6191 65.799C73.5924 65.7204 73.569 65.6847 73.5456 65.6847H73.5089C73.4755 65.6847 73.4487 65.7204 73.4287 65.799L72.243 71.2512C72.2368 71.2793 72.2334 71.308 72.233 71.3369ZM82.3732 76.4534V63.5424C82.3744 63.4914 82.3851 63.4411 82.4046 63.3946C82.424 63.348 82.452 63.306 82.4868 63.2711C82.5195 63.2342 82.5589 63.2048 82.6025 63.1845C82.6461 63.1643 82.6931 63.1536 82.7406 63.1532H86.0372C86.5484 63.1498 87.0546 63.2605 87.5235 63.4781C88.4482 63.8953 89.184 64.6819 89.5743 65.6704C89.7779 66.1717 89.8814 66.7129 89.8782 67.2593C89.8841 67.981 89.7001 68.69 89.3471 69.3052C89.0118 69.9068 88.5396 70.4079 87.9744 70.762C87.842 70.8364 87.7276 70.9427 87.6404 71.0726C87.6117 71.1427 87.6 71.2193 87.6064 71.2955C87.6128 71.3716 87.6372 71.4448 87.6771 71.5082L89.8381 76.2642C89.867 76.3263 89.882 76.3947 89.882 76.4641C89.882 76.5335 89.867 76.6019 89.8381 76.6641C89.8027 76.7278 89.7507 76.779 89.6883 76.8114C89.626 76.8437 89.5561 76.8558 89.4874 76.8462H88.442C88.3213 76.858 88.2012 76.8182 88.108 76.7355C88.0298 76.6522 87.9634 76.5572 87.9109 76.4534L85.77 71.6046C85.7451 71.5389 85.7034 71.482 85.6498 71.4404C85.5821 71.3944 85.5027 71.3719 85.4226 71.3761H84.3071C84.2828 71.372 84.2579 71.3739 84.2345 71.3819C84.2111 71.3899 84.1897 71.4036 84.1722 71.422C84.1546 71.4405 84.1414 71.463 84.1335 71.4879C84.1256 71.5128 84.1233 71.5393 84.1267 71.5654V76.4534C84.1276 76.5044 84.1182 76.5551 84.0991 76.6019C84.0801 76.6487 84.0519 76.6906 84.0165 76.7248C83.9845 76.7638 83.9449 76.7948 83.9004 76.8158C83.856 76.8368 83.8079 76.8471 83.7593 76.8462H82.7573C82.7093 76.8466 82.6618 76.836 82.618 76.815C82.5742 76.7941 82.5351 76.7633 82.5035 76.7248C82.4644 76.6926 82.4324 76.6516 82.4099 76.6047C82.3874 76.5578 82.3748 76.5061 82.3732 76.4534ZM84.1167 69.3124C84.1134 69.3385 84.1158 69.3651 84.1237 69.3901C84.1316 69.4152 84.1448 69.4379 84.1622 69.4565C84.1797 69.4752 84.2009 69.4893 84.2243 69.4977C84.2477 69.5062 84.2726 69.5087 84.2971 69.5052H86.0372C86.3166 69.5088 86.5935 69.4479 86.8488 69.3267C87.0986 69.2121 87.3254 69.0473 87.5168 68.8411C87.7078 68.6348 87.8618 68.3927 87.9711 68.127C88.084 67.85 88.1409 67.5507 88.1381 67.2486C88.14 66.9489 88.0831 66.6521 87.9711 66.3774C87.861 66.1122 87.7071 65.8703 87.5168 65.6633C87.3245 65.4583 87.0979 65.2936 86.8488 65.1777C86.5929 65.0584 86.3164 64.9976 86.0372 64.9992H84.2971C84.2726 64.9957 84.2477 64.9982 84.2243 65.0066C84.2009 65.0151 84.1797 65.0292 84.1622 65.0478C84.1448 65.0665 84.1316 65.0892 84.1237 65.1142C84.1158 65.1392 84.1134 65.1658 84.1167 65.192V69.3124ZM94.0632 63.5067C94.0639 63.4412 94.0838 63.3775 94.12 63.3246C94.1467 63.2713 94.1868 63.227 94.2358 63.1967C94.2848 63.1664 94.3407 63.1514 94.3972 63.1532H95.613C95.6925 63.152 95.7699 63.1812 95.8312 63.2355C95.8924 63.2898 95.9335 63.3657 95.947 63.4496L98.0211 69.5195C98.0679 69.648 98.1146 69.648 98.1614 69.5195L100.202 63.4496C100.216 63.3657 100.257 63.2898 100.318 63.2355C100.379 63.1812 100.457 63.152 100.536 63.1532H101.752C101.808 63.1518 101.864 63.167 101.913 63.1973C101.962 63.2275 102.002 63.2716 102.029 63.3246C102.066 63.377 102.085 63.4413 102.083 63.5067C102.082 63.5759 102.067 63.6442 102.039 63.7067L98.9563 72.1295V76.4534C98.9562 76.5039 98.9467 76.554 98.9283 76.6005C98.91 76.6471 98.8832 76.6893 98.8494 76.7248C98.8174 76.7638 98.7778 76.7948 98.7334 76.8158C98.689 76.8368 98.6408 76.8471 98.5923 76.8462H97.5903C97.5423 76.8466 97.4948 76.836 97.451 76.815C97.4072 76.7941 97.3681 76.7633 97.3364 76.7248C97.3004 76.6909 97.2716 76.6491 97.252 76.6023C97.2324 76.5555 97.2224 76.5047 97.2229 76.4534V72.1474L94.12 63.7138C94.0866 63.6503 94.0671 63.5795 94.0632 63.5067ZM114.467 71.5689C114.441 71.05 114.427 70.5216 114.427 69.9836C114.427 69.4409 114.427 68.9125 114.461 68.4055C114.494 67.8984 114.524 67.4486 114.577 67.0594C114.638 66.5293 114.772 66.0118 114.975 65.5241C115.177 65.0411 115.459 64.601 115.807 64.2244C116.166 63.8458 116.59 63.544 117.056 63.3353C117.575 63.1038 118.133 62.9896 118.696 62.9997C119.229 62.9965 119.76 63.0882 120.266 63.2711C120.747 63.4397 121.192 63.712 121.572 64.0712C121.951 64.4305 122.258 64.869 122.473 65.3598C122.704 65.8942 122.819 66.4779 122.807 67.0665V67.345C122.806 67.4469 122.768 67.5444 122.7 67.6164C122.667 67.6539 122.626 67.6838 122.581 67.704C122.537 67.7243 122.489 67.7346 122.44 67.7342H121.438C121.342 67.7308 121.25 67.6889 121.182 67.6168C121.113 67.5447 121.072 67.4477 121.067 67.345V67.0665C121.068 66.7812 121.012 66.4989 120.903 66.2382C120.794 65.9671 120.633 65.7237 120.429 65.5241C120.21 65.3134 119.956 65.1476 119.681 65.0349C119.36 64.9085 119.021 64.848 118.679 64.8564C118.109 64.8455 117.553 65.0433 117.103 65.4169C116.87 65.6168 116.678 65.8658 116.539 66.1483C116.4 66.4309 116.316 66.741 116.294 67.0594C116.247 67.4628 116.211 67.9163 116.187 68.4269C116.164 68.9375 116.164 69.4659 116.164 69.9979C116.164 70.5299 116.164 71.0691 116.201 71.5654C116.237 72.0617 116.261 72.5258 116.308 72.9257C116.345 73.2123 116.421 73.4914 116.535 73.7541C116.65 74.0233 116.813 74.2658 117.016 74.4682C117.227 74.6776 117.473 74.8434 117.74 74.9574C118.043 75.0861 118.367 75.1493 118.692 75.143C118.992 75.1434 119.289 75.1002 119.577 75.0145C119.853 74.9354 120.112 74.7996 120.339 74.6146C120.562 74.4307 120.742 74.195 120.867 73.9255C121.006 73.6163 121.075 73.2761 121.067 72.9329V71.9474C121.067 71.8224 121.007 71.7582 120.88 71.7582H119.227C119.179 71.7586 119.131 71.748 119.087 71.7271C119.044 71.7061 119.005 71.6753 118.973 71.6368C118.937 71.6026 118.909 71.5607 118.89 71.5139C118.871 71.4671 118.862 71.4164 118.863 71.3654V70.2943C118.861 70.2435 118.87 70.1931 118.889 70.1463C118.907 70.0995 118.935 70.0574 118.97 70.0229C119.002 69.9839 119.041 69.9528 119.086 69.9319C119.13 69.9109 119.178 69.9005 119.227 69.9015H122.443C122.539 69.9075 122.629 69.9508 122.697 70.0232C122.765 70.0956 122.805 70.192 122.811 70.2943V72.9364C122.816 73.4851 122.713 74.0287 122.51 74.5325C122.313 75.021 122.024 75.461 121.662 75.825C121.284 76.2066 120.839 76.5029 120.352 76.6962C119.819 76.9095 119.252 77.0149 118.682 77.0068C118.16 77.0106 117.641 76.9151 117.149 76.7248C116.69 76.5427 116.268 76.2675 115.907 75.9143C115.54 75.5489 115.24 75.1143 115.022 74.6324C114.78 74.0992 114.625 73.5256 114.564 72.9364C114.531 72.5437 114.494 72.0902 114.467 71.5689ZM127.744 71.5689C127.717 71.0548 127.704 70.5263 127.704 69.9836C127.704 69.4445 127.704 68.9125 127.74 68.409C127.777 67.9056 127.804 67.4521 127.857 67.0665C127.915 66.5348 128.049 66.0157 128.255 65.5276C128.455 65.0445 128.737 64.605 129.086 64.2315C129.443 63.8489 129.866 63.5444 130.332 63.3353C130.849 63.1034 131.405 62.9891 131.966 62.9997C132.486 62.9938 133.003 63.0894 133.492 63.2818C133.953 63.4611 134.377 63.7366 134.738 64.0923C135.107 64.458 135.409 64.8938 135.63 65.3777C135.868 65.9096 136.022 66.4804 136.084 67.0665C136.131 67.4521 136.164 67.9056 136.181 68.4197C136.197 68.9339 136.207 69.4588 136.207 69.9943C136.207 70.5299 136.207 71.0655 136.174 71.5689C136.141 72.0724 136.121 72.5401 136.084 72.9257C136.024 73.4609 135.889 73.9833 135.683 74.4753C135.486 74.958 135.21 75.3993 134.868 75.7786C134.511 76.161 134.087 76.4633 133.619 76.6676C133.1 76.8949 132.543 77.0079 131.982 76.9997C131.462 77.0035 130.945 76.9079 130.456 76.7176C129.988 76.5386 129.557 76.2619 129.19 75.9035C128.825 75.5385 128.525 75.1054 128.305 74.6253C128.066 74.0902 127.913 73.5155 127.854 72.9257C127.804 72.4749 127.767 72.0224 127.744 71.5689ZM129.484 68.4305C129.457 68.9375 129.447 69.4588 129.447 69.9943C129.447 70.5299 129.447 71.0655 129.484 71.5582C129.521 72.051 129.541 72.5223 129.591 72.9222C129.625 73.2105 129.702 73.4912 129.818 73.7541C129.932 74.0233 130.094 74.2659 130.296 74.4682C130.741 74.8873 131.31 75.1271 131.903 75.146C132.496 75.1649 133.077 74.9618 133.545 74.5717C133.998 74.1543 134.286 73.5685 134.35 72.9329C134.397 72.533 134.437 72.0795 134.467 71.5689C134.497 71.0584 134.511 70.5406 134.511 70.0051C134.511 69.4695 134.511 68.9339 134.467 68.4412C134.424 67.9484 134.397 67.4771 134.35 67.0772C134.314 66.7893 134.238 66.5088 134.123 66.2453C134.007 65.9776 133.845 65.7354 133.646 65.5312C133.437 65.3242 133.195 65.1596 132.931 65.0456C132.511 64.8803 132.06 64.8286 131.617 64.8953C131.174 64.962 130.753 65.1449 130.392 65.4276C130.161 65.6286 129.971 65.878 129.833 66.1604C129.695 66.4428 129.613 66.7524 129.591 67.0701C129.541 67.4664 129.524 67.9199 129.484 68.4305ZM139.838 64.6243V63.5531C139.838 63.5023 139.849 63.4522 139.867 63.4056C139.886 63.359 139.914 63.3169 139.948 63.2818C139.981 63.2416 140.022 63.2095 140.067 63.1873C140.113 63.1651 140.162 63.1535 140.212 63.1532H147.156C147.203 63.1538 147.25 63.1646 147.294 63.1848C147.337 63.205 147.377 63.2344 147.41 63.2711C147.444 63.3062 147.471 63.3483 147.49 63.3949C147.509 63.4415 147.519 63.4916 147.52 63.5424V64.6136C147.519 64.7155 147.481 64.8129 147.413 64.8849C147.381 64.9233 147.341 64.9537 147.297 64.974C147.252 64.9944 147.204 65.0042 147.156 65.0028H144.751C144.726 64.9995 144.701 65.0021 144.678 65.0105C144.654 65.0189 144.632 65.0329 144.614 65.0514C144.597 65.0699 144.583 65.0924 144.574 65.1174C144.565 65.1423 144.562 65.169 144.564 65.1956V76.4427C144.564 76.4932 144.554 76.5432 144.536 76.5898C144.518 76.6364 144.491 76.6786 144.457 76.7141C144.425 76.7526 144.386 76.7834 144.343 76.8043C144.299 76.8253 144.251 76.8359 144.203 76.8355H143.201C143.153 76.8364 143.105 76.8261 143.06 76.8051C143.016 76.7841 142.976 76.7531 142.944 76.7141C142.908 76.6802 142.879 76.6384 142.86 76.5916C142.84 76.5448 142.83 76.494 142.831 76.4427V65.2063C142.831 65.0777 142.77 65.0135 142.644 65.0135H140.212C140.117 65.0099 140.026 64.9678 139.958 64.8955C139.891 64.8233 139.851 64.7264 139.848 64.6243H139.838ZM150.973 64.6243V63.5531C150.975 63.5021 150.985 63.4519 151.005 63.4053C151.024 63.3587 151.052 63.3167 151.087 63.2818C151.119 63.2439 151.158 63.2138 151.202 63.1934C151.246 63.1731 151.293 63.163 151.341 63.1639H158.281C158.329 63.163 158.376 63.1731 158.42 63.1934C158.464 63.2138 158.503 63.2439 158.535 63.2818C158.571 63.3156 158.6 63.3574 158.62 63.4042C158.639 63.451 158.649 63.5018 158.649 63.5531V64.6243C158.648 64.7262 158.609 64.8236 158.542 64.8956C158.509 64.9335 158.468 64.9636 158.423 64.9839C158.378 65.0042 158.33 65.0142 158.281 65.0135H155.88C155.855 65.0103 155.83 65.013 155.806 65.0214C155.782 65.0298 155.761 65.0436 155.742 65.0621C155.724 65.0805 155.71 65.1029 155.701 65.1279C155.692 65.1528 155.688 65.1796 155.69 65.2063V76.4534C155.691 76.5042 155.682 76.5546 155.664 76.6014C155.645 76.6482 155.618 76.6903 155.583 76.7248C155.551 76.7629 155.513 76.7934 155.47 76.8143C155.426 76.8352 155.38 76.8461 155.332 76.8462H154.33C154.282 76.8466 154.235 76.836 154.191 76.815C154.147 76.7941 154.108 76.7633 154.076 76.7248C154.04 76.6909 154.011 76.6491 153.992 76.6023C153.972 76.5555 153.962 76.5047 153.963 76.4534V65.2063C153.966 65.1796 153.963 65.1526 153.954 65.1273C153.946 65.102 153.932 65.0792 153.914 65.0605C153.896 65.0419 153.874 65.0279 153.85 65.0198C153.826 65.0116 153.801 65.0095 153.776 65.0135H151.354C151.307 65.0144 151.259 65.0043 151.215 64.984C151.172 64.9637 151.132 64.9335 151.1 64.8956C151.063 64.8621 151.032 64.8207 151.011 64.774C150.989 64.7273 150.976 64.6764 150.973 64.6243ZM163.164 76.4534V63.5424C163.164 63.4911 163.174 63.4403 163.194 63.3935C163.213 63.3467 163.242 63.3049 163.278 63.2711C163.31 63.2332 163.349 63.203 163.393 63.1827C163.437 63.1624 163.484 63.1523 163.532 63.1532H164.534C164.581 63.1536 164.628 63.1643 164.672 63.1845C164.716 63.2048 164.755 63.2342 164.788 63.2711C164.822 63.306 164.85 63.348 164.87 63.3946C164.889 63.4411 164.9 63.4914 164.901 63.5424V74.7824C164.897 74.8082 164.899 74.8347 164.906 74.8597C164.914 74.8846 164.927 74.9073 164.944 74.9258C164.961 74.9443 164.983 74.9582 165.006 74.9661C165.029 74.9741 165.054 74.976 165.078 74.9716H169.18C169.228 74.9727 169.275 74.984 169.318 75.0049C169.362 75.0257 169.401 75.0557 169.434 75.093C169.468 75.128 169.496 75.1701 169.515 75.2167C169.534 75.2634 169.543 75.3136 169.544 75.3644V76.4356C169.545 76.4866 169.535 76.5372 169.516 76.584C169.497 76.6308 169.469 76.6727 169.434 76.7069C169.402 76.7455 169.363 76.7762 169.319 76.7972C169.275 76.8181 169.228 76.8288 169.18 76.8283H163.532C163.436 76.8224 163.346 76.7791 163.278 76.7067C163.211 76.6343 163.17 76.5378 163.164 76.4356V76.4534ZM174.12 76.4534V63.5424C174.12 63.4916 174.13 63.4415 174.149 63.3949C174.168 63.3483 174.196 63.3062 174.23 63.2711C174.263 63.2341 174.303 63.2046 174.347 63.1844C174.392 63.1642 174.439 63.1536 174.487 63.1532H175.489C175.537 63.1536 175.584 63.1643 175.627 63.1845C175.671 63.2048 175.71 63.2342 175.743 63.2711C175.777 63.3062 175.805 63.3483 175.824 63.3949C175.843 63.4415 175.853 63.4916 175.853 63.5424V76.4534C175.854 76.5044 175.845 76.5551 175.826 76.6019C175.807 76.6487 175.778 76.6906 175.743 76.7248C175.711 76.7633 175.672 76.7941 175.628 76.815C175.585 76.836 175.537 76.8466 175.489 76.8462H174.487C174.439 76.8471 174.39 76.8368 174.346 76.8158C174.302 76.7948 174.262 76.7638 174.23 76.7248C174.194 76.6906 174.166 76.6487 174.147 76.6019C174.128 76.5551 174.119 76.5044 174.12 76.4534ZM181.431 76.4534V63.5424C181.432 63.4916 181.442 63.4415 181.46 63.3949C181.479 63.3483 181.507 63.3062 181.541 63.2711C181.574 63.2342 181.613 63.2048 181.657 63.1845C181.7 63.1643 181.747 63.1536 181.795 63.1532H187.71C187.758 63.1536 187.805 63.1643 187.848 63.1845C187.892 63.2048 187.931 63.2342 187.964 63.2711C187.999 63.306 188.027 63.348 188.046 63.3946C188.066 63.4411 188.076 63.4914 188.078 63.5424V64.6136C188.077 64.6646 188.066 64.7149 188.046 64.7615C188.027 64.8082 187.999 64.8501 187.964 64.8849C187.931 64.9218 187.892 64.9512 187.848 64.9715C187.805 64.9917 187.758 65.0023 187.71 65.0028H183.368C183.344 64.9992 183.319 65.0018 183.295 65.0102C183.272 65.0186 183.251 65.0327 183.233 65.0514C183.216 65.0701 183.203 65.0928 183.195 65.1178C183.187 65.1428 183.184 65.1694 183.188 65.1956V68.7125C183.185 68.739 183.187 68.7658 183.195 68.7911C183.203 68.8163 183.216 68.8394 183.233 68.8586C183.251 68.8777 183.272 68.8925 183.295 68.9019C183.318 68.9112 183.343 68.9148 183.368 68.9125H187.52C187.616 68.9134 187.708 68.9544 187.777 69.0267C187.812 69.0627 187.84 69.1059 187.859 69.1538C187.878 69.2017 187.887 69.2532 187.887 69.3052V70.3764C187.887 70.4278 187.877 70.4787 187.859 70.526C187.84 70.5733 187.812 70.6159 187.777 70.6513C187.744 70.6888 187.704 70.7188 187.66 70.7396C187.616 70.7605 187.568 70.7717 187.52 70.7727H183.351C183.231 70.7727 183.171 70.837 183.171 70.9727V74.7824C183.168 74.8084 183.17 74.835 183.178 74.8599C183.186 74.8847 183.199 74.9073 183.217 74.9257C183.234 74.9441 183.255 74.9579 183.279 74.9659C183.302 74.9738 183.327 74.9758 183.351 74.9716H187.747C187.795 74.9729 187.842 74.9843 187.885 75.0051C187.929 75.026 187.968 75.0559 188.001 75.093C188.035 75.128 188.063 75.1701 188.082 75.2167C188.101 75.2634 188.111 75.3136 188.111 75.3644V76.4356C188.107 76.5377 188.067 76.6346 188 76.7073C187.933 76.7799 187.842 76.8231 187.747 76.8283H181.795C181.747 76.8288 181.7 76.8181 181.656 76.7972C181.612 76.7762 181.573 76.7455 181.541 76.7069C181.508 76.6748 181.481 76.6357 181.462 76.5922C181.443 76.5486 181.432 76.5014 181.431 76.4534ZM193.408 76.4534V63.5424C193.409 63.4916 193.419 63.4415 193.438 63.3949C193.457 63.3483 193.484 63.3062 193.518 63.2711C193.552 63.2341 193.592 63.2046 193.636 63.1844C193.68 63.1642 193.728 63.1536 193.776 63.1532H197.162C197.639 63.1512 198.111 63.2444 198.555 63.4282C198.977 63.6042 199.365 63.8607 199.701 64.1851C200.028 64.5096 200.289 64.902 200.469 65.3384C200.658 65.7973 200.753 66.2938 200.749 66.7952C200.744 67.2838 200.657 67.7674 200.492 68.2234C200.331 68.6894 200.061 69.1036 199.707 69.4266C199.534 69.5873 199.534 69.7266 199.707 69.8551C200.108 70.2098 200.426 70.6597 200.636 71.169C200.874 71.6945 200.999 72.2705 201 72.8543C201.006 73.3999 200.902 73.9404 200.696 74.4396C200.499 74.9127 200.221 75.3416 199.874 75.7036C199.526 76.0666 199.114 76.3529 198.662 76.5462C198.187 76.747 197.68 76.8488 197.169 76.8462H193.772C193.724 76.8466 193.677 76.836 193.633 76.815C193.589 76.7941 193.55 76.7633 193.518 76.7248C193.483 76.6906 193.455 76.6487 193.436 76.6019C193.417 76.5551 193.407 76.5044 193.408 76.4534ZM195.112 68.5983C195.108 68.6243 195.11 68.6508 195.118 68.6757C195.126 68.7006 195.139 68.7232 195.157 68.7416C195.175 68.76 195.196 68.7738 195.219 68.7817C195.243 68.7897 195.268 68.7917 195.292 68.7875H197.159C197.413 68.8046 197.667 68.7628 197.904 68.6647C198.141 68.5667 198.355 68.4149 198.532 68.2198C198.854 67.8256 199.025 67.3152 199.009 66.7916C199.014 66.5404 198.965 66.2915 198.867 66.0634C198.768 65.8352 198.623 65.6338 198.442 65.4741C198.267 65.3154 198.065 65.1942 197.847 65.117C197.625 65.0382 197.393 64.9973 197.159 64.9956H195.292C195.267 64.9921 195.243 64.9946 195.219 65.0031C195.196 65.0115 195.175 65.0256 195.157 65.0443C195.14 65.0629 195.126 65.0856 195.119 65.1107C195.111 65.1357 195.108 65.1623 195.112 65.1884V68.5983ZM195.112 74.786C195.108 74.812 195.11 74.8385 195.118 74.8634C195.126 74.8883 195.139 74.9109 195.157 74.9293C195.175 74.9477 195.196 74.9615 195.219 74.9694C195.243 74.9774 195.268 74.9794 195.292 74.9752H197.159C197.434 74.9761 197.707 74.9216 197.964 74.8145C198.213 74.7108 198.44 74.5555 198.632 74.3575C198.82 74.1618 198.975 73.9321 199.09 73.6791C199.201 73.4181 199.258 73.1342 199.257 72.8472C199.259 72.5266 199.202 72.2087 199.09 71.9117C198.983 71.6373 198.827 71.3876 198.632 71.1762C198.442 70.9727 198.214 70.8134 197.964 70.7084C197.707 70.6014 197.434 70.5469 197.159 70.5478H195.292C195.282 70.5406 195.271 70.5356 195.26 70.5332C195.248 70.5307 195.236 70.5309 195.224 70.5335C195.213 70.5362 195.202 70.5414 195.192 70.5487C195.183 70.5561 195.174 70.5655 195.168 70.5763C195.131 70.62 195.11 70.6776 195.112 70.737V74.786Z" fill="white"/>
</g>
<defs>
<clipPath id="clip0_14443_405">
<rect width="167" height="14" fill="white" transform="translate(34 63)"/>
</clipPath>
</defs>
</svg>
