<svg width="235" height="140" viewBox="0 0 235 140" fill="none" xmlns="http://www.w3.org/2000/svg">
<g clip-path="url(#clip0_14443_458)">
<path d="M142.25 45.25H92.75V94.75H142.25V45.25Z" fill="white"/>
<path d="M100.376 64.1811C101.109 64.1811 101.644 63.6091 101.644 62.8639C101.644 62.1186 101.111 61.5466 100.376 61.5466H98.8474V64.1811H100.376ZM100.376 59.9447C101.208 59.9447 101.916 60.2307 102.488 60.789C103.06 61.3486 103.346 62.0444 103.346 62.8639C103.346 63.6834 103.06 64.3791 102.488 64.9387C101.916 65.4984 101.208 65.783 100.376 65.783H98.8474V68.6402H97.1328V59.9434H100.376V59.9447Z" fill="#013126"/>
<path d="M106.119 59.9434H104.516V68.6402H106.119V59.9434Z" fill="#013126"/>
<path d="M110.827 67.2864C111.324 67.2864 111.734 67.1242 112.056 66.8024C112.391 66.4669 112.554 66.0448 112.554 65.5347C112.554 65.0245 112.391 64.6024 112.056 64.2793C111.733 63.9438 111.323 63.7815 110.827 63.7815C110.33 63.7815 109.919 63.9438 109.596 64.2793C109.273 64.6024 109.112 65.0245 109.112 65.5347C109.112 66.0448 109.274 66.4655 109.596 66.8024C109.919 67.1255 110.329 67.2864 110.827 67.2864ZM112.554 62.4285H114.157V68.6408H112.554V67.9079C112.07 68.517 111.399 68.8154 110.528 68.8154C109.658 68.8154 108.988 68.5047 108.392 67.8708C107.807 67.2369 107.509 66.4545 107.509 65.5347C107.509 64.6148 107.807 63.8448 108.392 63.2109C108.988 62.577 109.696 62.2539 110.528 62.2539C111.36 62.2539 112.068 62.5523 112.554 63.1614V62.4285Z" fill="#013126"/>
<path d="M116.468 67.8718C115.847 67.2379 115.536 66.4679 115.536 65.5356C115.536 64.6034 115.847 63.8334 116.468 63.1995C117.102 62.5656 117.885 62.2549 118.817 62.2549C120.023 62.2549 121.091 62.8764 121.6 63.8581L120.221 64.6666C119.973 64.1565 119.438 63.8334 118.805 63.8334C117.848 63.8334 117.139 64.5415 117.139 65.5356C117.139 66.0196 117.302 66.4294 117.612 66.7539C117.923 67.0646 118.321 67.2255 118.806 67.2255C119.452 67.2255 119.986 66.9148 120.235 66.406L121.626 67.2008C121.079 68.1825 120.023 68.8164 118.818 68.8164C117.886 68.8164 117.104 68.5056 116.47 67.8718" fill="#013126"/>
<path d="M127.33 64.9513C127.144 64.107 126.522 63.6959 125.79 63.6959C124.932 63.6959 124.349 64.1551 124.162 64.9513H127.33ZM124.186 66.1943C124.398 66.9766 124.981 67.363 125.938 67.363C126.546 67.363 127.019 67.1513 127.33 66.7415L128.622 67.4868C128.013 68.3695 127.107 68.8164 125.913 68.8164C124.882 68.8164 124.063 68.5056 123.441 67.8841C122.82 67.2626 122.509 66.4803 122.509 65.5356C122.509 64.591 122.82 63.821 123.429 63.1995C124.038 62.5656 124.833 62.2549 125.79 62.2549C126.747 62.2549 127.455 62.5656 128.039 63.1995C128.636 63.8334 128.934 64.6034 128.934 65.5356C128.934 65.7474 128.909 65.9578 128.872 66.1943H124.188H124.186Z" fill="#013126"/>
<path d="M102.389 70.8154V72.3733H100.041V79.5137H98.3264V72.3733H95.9902V70.8154H102.389Z" fill="#013126"/>
<path d="M105.062 78.1633C105.546 78.1633 105.945 78.0025 106.267 77.6793C106.59 77.3562 106.751 76.9465 106.751 76.4487C106.751 75.951 106.59 75.5412 106.267 75.2181C105.943 74.895 105.546 74.7341 105.062 74.7341C104.578 74.7341 104.179 74.8963 103.857 75.2181C103.547 75.5412 103.384 75.951 103.384 76.4487C103.384 76.9465 103.547 77.3562 103.857 77.6793C104.181 78.0025 104.578 78.1633 105.062 78.1633ZM105.062 79.7295C104.144 79.7295 103.36 79.4187 102.726 78.7848C102.092 78.151 101.781 77.3686 101.781 76.4487C101.781 75.5288 102.092 74.7588 102.726 74.125C103.36 73.4911 104.142 73.168 105.062 73.168C105.982 73.168 106.764 73.4911 107.398 74.125C108.032 74.7588 108.355 75.5288 108.355 76.4487C108.355 77.3686 108.032 78.151 107.398 78.7848C106.764 79.4187 105.982 79.7295 105.062 79.7295Z" fill="#013126"/>
<path d="M98.6607 90.3838L96.2256 81.6855H98.0268L99.692 88.1343L101.506 81.6855H102.973L104.799 88.1343L106.464 81.6855H108.265L105.83 90.3838H103.879L102.24 84.6432L100.612 90.3838H98.6607Z" fill="#013126"/>
<path d="M111.397 88.9928C111.881 88.9928 112.28 88.8306 112.601 88.5088C112.925 88.1857 113.085 87.776 113.085 87.2782C113.085 86.7805 112.925 86.3707 112.601 86.0476C112.278 85.7245 111.881 85.5636 111.397 85.5636C110.913 85.5636 110.514 85.7245 110.192 86.0476C109.882 86.3707 109.719 86.7805 109.719 87.2782C109.719 87.776 109.882 88.1857 110.192 88.5088C110.516 88.832 110.913 88.9928 111.397 88.9928ZM111.397 90.5576C110.477 90.5576 109.695 90.2468 109.061 89.613C108.427 88.9791 108.116 88.1967 108.116 87.2768C108.116 86.357 108.427 85.587 109.061 84.9531C109.695 84.3192 110.477 83.9961 111.397 83.9961C112.317 83.9961 113.099 84.3192 113.733 84.9531C114.367 85.587 114.69 86.357 114.69 87.2768C114.69 88.1967 114.367 88.9791 113.733 89.613C113.099 90.2468 112.317 90.5576 111.397 90.5576Z" fill="#013126"/>
<path d="M117.425 85.2404C117.723 84.4456 118.468 84.0469 119.314 84.0469V85.8358C118.83 85.7739 118.382 85.8729 117.997 86.1341C117.612 86.3954 117.425 86.8175 117.425 87.4142V90.3842H115.821V84.172H117.425V85.2404Z" fill="#013126"/>
<path d="M126.221 90.3838H124.358L122.096 87.5637V90.3838H120.493V81.6855H122.096V86.905L124.233 84.1715H126.147L123.65 87.2405L126.221 90.3838Z" fill="#013126"/>
<path d="M128.211 89.106C128.369 89.106 128.452 89.0359 128.452 88.9039V88.8984C128.452 88.7526 128.364 88.7017 128.211 88.7017H128.034V89.106H128.211ZM127.73 88.4666H128.216C128.538 88.4666 128.747 88.5986 128.747 88.8846V88.8915C128.747 89.1005 128.628 89.2146 128.463 89.2655L128.83 89.854H128.513L128.178 89.3164H128.032V89.854H127.728V88.468L127.73 88.4666ZM129.362 89.1761C129.362 88.4859 128.881 88.0046 128.21 88.0046C127.539 88.0046 127.057 88.4914 127.057 89.1816C127.057 89.8719 127.563 90.3462 128.21 90.3462C128.856 90.3462 129.362 89.865 129.362 89.1761ZM126.806 89.1816C126.806 88.4034 127.426 87.7764 128.211 87.7764C128.996 87.7764 129.616 88.3965 129.616 89.1747C129.616 89.953 128.996 90.5731 128.211 90.5731C127.426 90.5731 126.806 89.9722 126.806 89.1816Z" fill="#013126"/>
<path d="M104.924 53.0713V53.7423C104.924 54.9853 104.527 55.9918 103.731 56.7618C102.936 57.5318 101.905 57.9182 100.649 57.9182C99.3071 57.9182 98.1893 57.4823 97.3065 56.6133C96.4238 55.7306 95.9893 54.6622 95.9893 53.4082C95.9893 52.1542 96.4238 51.0721 97.2941 50.1893C98.1769 49.3079 99.2576 48.8721 100.55 48.8721C102.178 48.8721 103.594 49.6668 104.34 50.8974L102.874 51.7417C102.464 51.0336 101.569 50.5372 100.538 50.5372C99.7045 50.5372 99.0225 50.8108 98.4876 51.3567C97.9541 51.8916 97.6929 52.5749 97.6929 53.4068C97.6929 54.2387 97.9665 54.9097 98.5 55.4446C99.0473 55.9781 99.7678 56.2393 100.663 56.2393C101.993 56.2393 102.886 55.6178 103.197 54.5866H100.563V53.0713H104.924Z" fill="#013126"/>
<path d="M107.493 52.5997C107.776 51.805 108.484 51.4062 109.287 51.4062V53.1951C108.828 53.1332 108.402 53.2322 108.036 53.4935C107.67 53.7547 107.493 54.1769 107.493 54.7736V57.7436H105.971V51.5314H107.493V52.5997Z" fill="#013126"/>
<path d="M115.001 54.0528C114.816 53.2086 114.194 52.7988 113.461 52.7988C112.605 52.7988 112.02 53.2581 111.833 54.0528H115.001ZM111.858 55.2958C112.07 56.0782 112.653 56.4646 113.61 56.4646C114.218 56.4646 114.691 56.2528 115.001 55.8431L116.294 56.5883C115.685 57.4711 114.777 57.9179 113.585 57.9179C112.554 57.9179 111.734 57.6072 111.113 56.9857C110.491 56.3642 110.181 55.5818 110.181 54.6372C110.181 53.6926 110.491 52.9226 111.101 52.3011C111.71 51.6672 112.504 51.3564 113.461 51.3564C114.418 51.3564 115.127 51.6672 115.711 52.3011C116.308 52.9349 116.605 53.7049 116.605 54.6372C116.605 54.8489 116.58 55.0593 116.543 55.2958H111.858Z" fill="#013126"/>
<path d="M120.656 56.3889C121.152 56.3889 121.563 56.2267 121.885 55.9049C122.207 55.5832 122.383 55.1473 122.383 54.6372C122.383 54.1271 122.221 53.7049 121.885 53.3818C121.562 53.0463 121.152 52.8841 120.656 52.8841C120.159 52.8841 119.748 53.0463 119.425 53.3818C119.102 53.7049 118.941 54.1271 118.941 54.6372C118.941 55.1473 119.103 55.5694 119.425 55.9049C119.748 56.2281 120.158 56.3889 120.656 56.3889ZM122.383 51.5311H123.986V57.7433H122.383V57.0104C121.899 57.6196 121.228 57.9179 120.357 57.9179C119.487 57.9179 118.817 57.6072 118.221 56.9733C117.636 56.3394 117.338 55.5571 117.338 54.6372C117.338 53.7173 117.636 52.9473 118.221 52.3134C118.817 51.6796 119.526 51.3564 120.357 51.3564C121.189 51.3564 121.897 51.6548 122.383 52.2639V51.5311Z" fill="#013126"/>
<path d="M129.242 53.0714H127.838V55.6564C127.838 56.3274 128.322 56.3397 129.242 56.2902V57.7436C127.042 57.9925 126.235 57.3586 126.235 55.6564V53.0714H125.154V51.53H126.235V50.276L127.838 49.792V51.5314H129.242V53.0727V53.0714Z" fill="#013126"/>
</g>
<defs>
<clipPath id="clip0_14443_458">
<rect width="49.5" height="49.5" fill="white" transform="translate(92.75 45.25)"/>
</clipPath>
</defs>
</svg>
