<svg width="235" height="140" viewBox="0 0 235 140" fill="none" xmlns="http://www.w3.org/2000/svg">
<g clip-path="url(#clip0_14443_388)">
<path d="M174.506 74.2133C174.799 76.9146 176.649 77.6413 178.793 77.6413C180.202 77.6413 181.406 77.8028 182.426 76.3494C182.734 75.9089 183.747 75.3804 184.584 75.9016C185.524 76.4888 185.45 77.5679 184.878 78.3533C183.49 80.2545 181.34 80.7389 178.793 80.7389C174.829 80.7389 171.188 77.9936 171.188 73.3765C171.188 68.73 173.772 65.0818 178.91 65.0818C183.615 65.0818 186.133 68.2309 186.133 72.9654V73.1416C186.133 73.6261 185.803 74.2133 185.326 74.2133H174.506ZM183.057 71.446C182.588 69.0603 181.12 68.1795 178.91 68.1795C176.649 68.1795 174.976 69.0897 174.506 71.446H183.057ZM165.653 76.1438C165.653 77.1495 166.373 77.6119 167.488 77.6119C167.657 77.6119 167.841 77.6486 168.039 77.6119C168.744 77.4871 169.426 78.0817 169.58 78.7864C169.749 79.4984 169.331 80.1884 168.633 80.4013C168.156 80.5481 167.598 80.7463 166.886 80.7389C164.486 80.7169 162.335 78.9846 162.335 76.5843V60.6555C162.358 60.2234 162.539 59.8148 162.843 59.5075C163.148 59.2002 163.555 59.0157 163.987 58.9893C164.419 59.0138 164.827 59.1965 165.133 59.5024C165.439 59.8084 165.621 60.2162 165.646 60.6482V76.1438H165.653ZM152.411 80.7389C151.459 80.7771 150.511 80.5956 149.64 80.2087C148.77 79.8217 148 79.2396 147.39 78.5075V78.7717C147.39 79.6159 146.568 80.2985 145.724 80.2985C144.887 80.2985 144.065 79.6159 144.065 78.7717V60.6555C144.088 60.2223 144.27 59.8126 144.576 59.5051C144.882 59.1977 145.291 59.014 145.724 58.9893C146.158 59.0122 146.569 59.1951 146.877 59.5028C147.184 59.8104 147.367 60.2211 147.39 60.6555V67.5042C148.006 66.7816 148.778 66.208 149.648 65.8266C150.517 65.4452 151.462 65.2658 152.411 65.302C156.228 65.302 159.561 68.4217 159.561 73.0095C159.561 77.6193 156.235 80.7389 152.411 80.7389ZM152.103 68.6786C149.871 68.6786 147.39 69.809 147.39 73.1049C147.39 76.4007 149.871 77.5312 152.103 77.5312C154.584 77.5312 156.522 75.8429 156.522 73.1049C156.549 72.5171 156.453 71.93 156.241 71.3812C156.028 70.8324 155.704 70.3339 155.288 69.9175C154.872 69.501 154.374 69.1758 153.826 68.9625C153.278 68.7492 152.691 68.6525 152.103 68.6786ZM140.189 78.9112C140.163 79.3434 139.98 79.7512 139.675 80.0581C139.369 80.3649 138.962 80.5496 138.53 80.5775C138.098 80.5496 137.691 80.3649 137.386 80.0581C137.08 79.7512 136.897 79.3434 136.871 78.9112V71.9084C136.871 69.7577 135.433 68.5612 133.554 68.5612C131.168 68.5612 130.228 70.0806 130.228 73.3471V78.9112C130.202 79.3434 130.02 79.7512 129.714 80.0581C129.409 80.3649 129.001 80.5496 128.569 80.5775C128.137 80.5496 127.73 80.3649 127.425 80.0581C127.119 79.7512 126.936 79.3434 126.91 78.9112V71.9084C126.91 69.7577 125.751 68.407 123.872 68.407C121.523 68.407 120.267 70.0806 120.267 73.3471V78.9112C120.241 79.3434 120.059 79.7512 119.753 80.0581C119.448 80.3649 119.041 80.5496 118.608 80.5775C118.176 80.5496 117.769 80.3649 117.464 80.0581C117.158 79.7512 116.975 79.3434 116.95 78.9112V67.2913C116.977 66.8604 117.161 66.4543 117.466 66.149C117.771 65.8437 118.178 65.66 118.608 65.6323C119.039 65.66 119.445 65.8437 119.751 66.149C120.056 66.4543 120.24 66.8604 120.267 67.2913C121.324 65.9994 122.58 65.3314 124.672 65.3314C126.749 65.3314 128.173 66.2049 129.113 67.9005C130.287 66.2636 131.99 65.3754 134.398 65.3754C137.422 65.3754 140.197 67.8492 140.197 71.2845V78.9185L140.189 78.9112ZM109.749 79.058C108.523 80.3352 107.737 80.7463 105.08 80.7463C101.557 80.7463 99.2371 78.4634 99.2371 74.7859V67.2913C99.2616 66.8593 99.4443 66.4514 99.7502 66.1455C100.056 65.8395 100.464 65.6569 100.896 65.6323C101.328 65.6569 101.736 65.8395 102.042 66.1455C102.348 66.4514 102.53 66.8593 102.555 67.2913V74.1693C102.555 76.5549 103.671 77.8101 105.785 77.8101C107.546 77.8101 108.985 77.5165 109.749 75.3731C109.734 75.3731 109.749 73.9417 109.749 72.7305V67.2839C109.773 66.8508 109.957 66.4419 110.264 66.1358C110.572 65.8297 110.982 65.6478 111.415 65.625C111.847 65.6495 112.255 65.8322 112.561 66.1382C112.867 66.4441 113.049 66.852 113.074 67.2839V79.0433C113.074 79.8874 112.259 80.5701 111.415 80.5701C110.571 80.5701 109.749 79.8874 109.749 79.0433V79.058ZM89.3202 80.7463C88.3663 80.7847 87.4165 80.6026 86.5445 80.2144C85.6724 79.8261 84.9016 79.242 84.292 78.5075V78.7717C84.292 79.6159 83.4772 80.2985 82.633 80.2985C81.7889 80.2985 80.9741 79.6159 80.9741 78.7717V60.6555C80.9969 60.2223 81.1788 59.8126 81.4849 59.5051C81.791 59.1977 82.1998 59.014 82.633 58.9893C83.0662 59.014 83.475 59.1977 83.7812 59.5051C84.0873 59.8126 84.2692 60.2223 84.292 60.6555V67.5042C84.9088 66.7806 85.6819 66.2064 86.5529 65.825C87.4238 65.4435 88.37 65.2647 89.3202 65.302C93.1372 65.302 96.4697 68.4217 96.4697 73.0095C96.4697 77.6193 93.1372 80.7389 89.3202 80.7389V80.7463ZM89.0119 68.6786C86.773 68.6786 84.292 69.809 84.292 73.1049C84.292 76.4007 86.773 77.5312 89.0119 77.5312C91.4929 77.5312 93.4235 75.8429 93.4235 73.1049C93.4505 72.5177 93.355 71.9313 93.143 71.383C92.9311 70.8348 92.6073 70.3366 92.1924 69.9203C91.7774 69.5039 91.2803 69.1785 90.7328 68.9648C90.1852 68.751 89.5991 68.6535 89.0119 68.6786ZM73.3767 69.2512C73.663 69.7503 73.663 70.3669 73.3767 70.8661L67.9081 80.3205C67.7667 80.5655 67.5635 80.769 67.3187 80.9107C67.074 81.0524 66.7963 81.1273 66.5135 81.128H55.5762C55.2934 81.1273 55.0157 81.0524 54.771 80.9107C54.5262 80.769 54.3229 80.5655 54.1815 80.3205L48.7203 70.8661C48.5785 70.6206 48.5039 70.3421 48.5039 70.0586C48.5039 69.7751 48.5785 69.4967 48.7203 69.2512L54.1815 59.7967C54.3229 59.5518 54.5262 59.3483 54.771 59.2066C55.0157 59.0649 55.2934 58.9899 55.5762 58.9893H66.5135C67.086 58.9893 67.6145 59.2976 67.9081 59.7967L73.3767 69.2512ZM66.5648 71.446C67.3209 71.446 67.9375 70.822 67.9375 70.0586C67.9375 69.2952 67.3209 68.6786 66.5648 68.6786H55.5322C55.1652 68.6786 54.8133 68.8244 54.5538 69.0839C54.2943 69.3434 54.1485 69.6953 54.1485 70.0623C54.1485 70.4293 54.2943 70.7812 54.5538 71.0407C54.8133 71.3002 55.1652 71.446 55.5322 71.446H66.5575H66.5648ZM62.7185 76.1438C63.4672 76.1438 64.0764 75.5272 64.0764 74.7638C64.0764 74.0004 63.4672 73.3765 62.7185 73.3765H59.3639C58.6152 73.3765 58.0059 74.0004 58.0059 74.7638C58.0059 75.5272 58.6152 76.1438 59.3639 76.1438H62.7111H62.7185ZM58.0059 63.9807C57.2498 63.9807 56.6332 64.5973 56.6332 65.3607C56.6332 66.1242 57.2498 66.7481 58.0059 66.7481H64.0838C64.8398 66.7481 65.4564 66.1242 65.4564 65.3607C65.4564 64.5973 64.8398 63.9807 64.0838 63.9807H58.0059Z" fill="white"/>
</g>
<defs>
<clipPath id="clip0_14443_388">
<rect width="138" height="23.4894" fill="white" transform="translate(48.5 58.2549)"/>
</clipPath>
</defs>
</svg>
