<svg width="235" height="140" viewBox="0 0 235 140" fill="none" xmlns="http://www.w3.org/2000/svg">
<g clip-path="url(#clip0_14443_392)">
<path d="M100.408 65.1706C96.0614 65.1706 92.5048 68.6952 92.5048 73.0031C92.5048 77.311 96.0614 80.8357 100.408 80.8357C104.755 80.8357 108.312 77.311 108.312 73.0031C108.312 68.6952 104.755 65.1706 100.408 65.1706ZM104.261 72.9052C104.261 75.0592 102.582 76.8215 100.507 76.8215C98.4325 76.8215 96.753 75.0592 96.753 72.9052C96.753 70.7513 98.4325 68.9889 100.507 68.9889C102.582 68.9889 104.261 70.7513 104.261 72.9052ZM128.071 65.4643C127.972 65.3664 127.873 65.3664 127.775 65.3664H124.613C124.416 65.3664 124.218 65.5622 124.218 65.758V79.9545C124.218 80.0524 124.218 80.1503 124.317 80.2482C124.416 80.3461 124.514 80.3461 124.613 80.3461H127.775C127.972 80.3461 128.17 80.1503 128.17 79.9545V65.758C128.17 65.6601 128.17 65.5622 128.071 65.4643ZM126.194 63.5061C127.38 63.5061 128.367 62.5271 128.367 61.3522C128.466 60.1773 127.38 59.1982 126.194 59.1982C125.008 59.1982 124.02 60.1773 124.02 61.3522C124.02 62.625 125.008 63.5061 126.194 63.5061ZM121.946 59.492H110.387C110.189 59.492 109.992 59.6878 109.992 59.8836V79.9545C109.992 80.0524 109.992 80.1503 110.09 80.2482C110.189 80.3461 110.288 80.3461 110.387 80.3461H113.548C113.746 80.3461 113.943 80.1503 113.943 79.9545V71.8282H121.057C121.155 71.8282 121.254 71.8282 121.353 71.7303C121.452 71.6324 121.452 71.5345 121.452 71.4366V68.4994C121.452 68.3036 121.254 68.1078 121.057 68.1078H113.943V63.2124H121.946C122.045 63.2124 122.143 63.2124 122.242 63.1145C122.341 63.0166 122.341 62.9187 122.341 62.8208V59.8836C122.341 59.6878 122.143 59.492 121.946 59.492ZM85.0952 68.2057C81.9337 66.835 80.9458 66.2475 80.9458 65.0727C80.9458 63.5061 82.4277 63.0166 83.8108 63.0166C85.2928 63.0166 86.8735 63.7999 86.8735 65.9538C86.8735 66.1496 86.9723 66.2475 87.1699 66.2475H90.6277C90.7265 66.1496 90.8253 66.0517 90.8253 65.9538C90.8253 62.0375 87.9602 59.1982 83.8108 59.1982C79.6614 59.1982 76.994 61.548 76.994 65.0727C76.994 69.2827 80.1554 70.5554 83.2181 71.7303L83.4157 71.8282C86.2807 72.9052 87.2687 73.3947 87.2687 74.7654C87.2687 76.6257 85.2928 76.9194 84.206 76.9194C82.1313 76.9194 80.5506 75.4508 80.5506 73.4927V73.2968C80.5506 73.101 80.4518 73.0031 80.2542 73.0031H76.7964C76.6976 73.0031 76.5 73.101 76.5 73.2968V73.5906C76.5 77.8985 79.6614 80.8357 84.1072 80.8357C88.3554 80.8357 91.2205 78.388 91.2205 74.8634C91.3193 71.2408 89.4422 69.968 85.0952 68.2057ZM158.5 79.7587C158.5 80.3461 158.105 80.7378 157.512 80.7378C156.919 80.7378 156.524 80.3461 156.524 79.7587C156.524 79.1713 156.919 78.7796 157.512 78.7796C158.105 78.7796 158.5 79.1713 158.5 79.7587ZM156.722 79.7587C156.722 80.2482 157.018 80.542 157.512 80.542C158.006 80.542 158.302 80.2482 158.302 79.7587C158.302 79.2692 158.006 78.9754 157.512 78.9754C157.018 78.9754 156.722 79.2692 156.722 79.7587ZM157.907 79.5629C157.907 79.6608 157.808 79.7587 157.71 79.8566L157.907 80.2482H157.611L157.413 79.8566H157.314V80.2482H157.117V79.2692H157.512C157.71 79.2692 157.907 79.3671 157.907 79.5629ZM157.413 79.465V79.7587H157.512C157.611 79.7587 157.71 79.6608 157.71 79.6608C157.71 79.5629 157.611 79.5629 157.512 79.5629H157.413V79.465ZM153.363 60.0794C154.746 60.0794 155.833 61.1564 155.833 62.5271C155.833 63.8978 154.746 64.9748 153.363 64.9748C151.98 64.9748 150.893 63.8978 150.893 62.5271C150.893 61.1564 151.98 60.0794 153.363 60.0794ZM153.363 59.1982C151.486 59.1982 149.905 60.7648 149.905 62.625C149.905 64.4852 151.486 66.0517 153.363 66.0517C155.24 66.0517 156.82 64.4852 156.82 62.625C156.82 60.7648 155.24 59.1982 153.363 59.1982Z" fill="white"/>
<path d="M155.009 72.9696C156.686 72.0655 157.307 69.9847 156.394 68.3221C155.482 66.6595 153.382 66.0447 151.705 66.9488C150.027 67.853 149.407 69.9337 150.319 71.5963C151.231 73.2589 153.331 73.8738 155.009 72.9696Z" fill="white"/>
<path d="M155.004 80.3134C156.681 79.4092 157.302 77.3285 156.389 75.6659C155.477 74.0033 153.377 73.3884 151.7 74.2926C150.022 75.1967 149.402 77.2775 150.314 78.9401C151.226 80.6027 153.326 81.2175 155.004 80.3134Z" fill="white"/>
<path d="M145.953 67.5211C146.645 67.5211 147.237 67.8148 147.731 68.2064C148.225 68.6959 148.423 69.2834 148.423 69.9687C148.423 71.3394 147.336 72.4164 145.953 72.4164C145.261 72.4164 144.669 72.1227 144.175 71.7311C143.681 71.2415 143.483 70.6541 143.483 69.9687C143.384 68.598 144.57 67.5211 145.953 67.5211ZM145.953 66.542C144.076 66.542 142.495 68.1085 142.495 69.9687C142.495 71.829 144.076 73.3955 145.953 73.3955C147.83 73.3955 149.411 71.829 149.411 69.9687C149.411 68.1085 147.83 66.542 145.953 66.542Z" fill="white"/>
<path d="M141.682 71.3279C142.455 69.5975 141.666 67.5735 139.92 66.807C138.174 66.0406 136.132 66.822 135.358 68.5524C134.585 70.2828 135.373 72.3069 137.12 73.0733C138.866 73.8398 140.908 73.0583 141.682 71.3279Z" fill="white"/>
<path d="M149.106 63.9881C149.88 62.2577 149.091 60.2336 147.345 59.4672C145.599 58.7007 143.557 59.4822 142.783 61.2125C142.01 62.9429 142.798 64.967 144.544 65.7335C146.29 66.4999 148.333 65.7185 149.106 63.9881Z" fill="white"/>
<path d="M141.691 63.9803C142.465 62.2499 141.676 60.2258 139.93 59.4594C138.184 58.6929 136.142 59.4743 135.368 61.2047C134.595 62.9351 135.383 64.9592 137.129 65.7257C138.875 66.4921 140.918 65.7107 141.691 63.9803Z" fill="white"/>
<path d="M149.089 78.6873C149.862 76.9569 149.074 74.9328 147.328 74.1664C145.581 73.3999 143.539 74.1814 142.766 75.9118C141.992 77.6422 142.781 79.6662 144.527 80.4327C146.273 81.1991 148.315 80.4177 149.089 78.6873Z" fill="white"/>
<path d="M138.544 74.8638C139.235 74.8638 139.828 75.1576 140.322 75.5492C140.816 76.0387 141.014 76.6262 141.014 77.3115C141.014 78.6822 139.927 79.7592 138.544 79.7592C137.161 79.7592 136.074 78.6822 136.074 77.3115C135.975 75.9408 137.161 74.8638 138.544 74.8638ZM138.544 73.8848C136.667 73.8848 135.086 75.4513 135.086 77.3115C135.086 79.1717 136.667 80.7383 138.544 80.7383C140.421 80.7383 142.002 79.1717 142.002 77.3115C142.002 75.4513 140.421 73.8848 138.544 73.8848Z" fill="white"/>
</g>
<defs>
<clipPath id="clip0_14443_392">
<rect width="82" height="21.6705" fill="white" transform="translate(76.5 59.165)"/>
</clipPath>
</defs>
</svg>
