<svg width="234" height="140" viewBox="0 0 234 140" fill="none" xmlns="http://www.w3.org/2000/svg">
<g clip-path="url(#clip0_14443_438)">
<path d="M120.845 64.0049V65.6749L122.775 67.9949C121.516 68.6105 120.539 69.6836 120.045 70.9949C119.92 71.3619 119.859 71.7474 119.865 72.1349C119.862 72.9249 120.111 73.6952 120.575 74.3349C121.274 75.1752 122.224 75.7701 123.285 76.0327C124.346 76.2954 125.464 76.212 126.475 75.7949C127.159 75.4937 127.782 75.0701 128.315 74.5449L129.415 75.8549H132.315L124.015 66.0049H129.925V64.0049H120.825H120.845ZM122.365 73.2549C122.125 72.9053 122.002 72.4886 122.015 72.0649C122.012 71.8507 122.046 71.6377 122.115 71.4349C122.29 71.0086 122.549 70.6214 122.875 70.2953C123.201 69.9692 123.588 69.7108 124.015 69.5349L127.015 73.0849C126.639 73.5341 126.153 73.8786 125.605 74.0849C125.045 74.3288 124.42 74.3817 123.827 74.2353C123.235 74.0889 122.706 73.7514 122.325 73.2749L122.365 73.2549Z" fill="white"/>
<path d="M111.295 65.9249H102.825V68.6149H108.535V70.6749H102.825V73.6749H111.435V75.7249H100.295V64.0049H111.295V65.9249Z" fill="white"/>
<path d="M197.855 65.9249H189.375V68.6149H195.085V70.6749H189.375V73.6749H197.985V75.7249H186.845V64.0049H197.855V65.9249Z" fill="white"/>
<path d="M43.8346 64.1348L41.1646 72.0048L38.4246 64.1548H36.0146L40.1746 75.6848H42.0746L44.8946 67.1648L47.8146 75.6848H49.6146L53.6146 64.1548H51.3346L48.7246 71.9948L46.0146 64.1348H43.8346Z" fill="white"/>
<path d="M68.315 68.5549V64.0049H70.875V75.7249H68.315V70.7449H61.145V75.7249H58.585V64.0049H61.145V68.5549H68.315Z" fill="white"/>
<path d="M76.7744 75.7249V64.0049H79.2944V75.7249H76.7744Z" fill="white"/>
<path d="M91.1346 75.7249H88.5946V66.0849H83.9346V64.0049H95.7846V66.0849H91.1346V75.7249Z" fill="white"/>
<path d="M140.395 65.6351C139.85 66.1977 139.423 66.8635 139.14 67.5934C138.857 68.3233 138.722 69.1025 138.745 69.8851C138.745 74.0451 142.005 75.8851 145.245 75.8851C146.915 75.8121 148.535 75.2905 149.935 74.3751L148.935 72.6351C147.857 73.3998 146.566 73.8056 145.245 73.7951C144.697 73.8402 144.146 73.7696 143.628 73.5876C143.11 73.4057 142.636 73.1167 142.237 72.7393C141.838 72.3619 141.523 71.9047 141.312 71.3974C141.101 70.8901 141 70.3442 141.015 69.7951C141.014 69.2534 141.123 68.7173 141.336 68.2192C141.549 67.7211 141.861 67.2713 142.252 66.8973C142.644 66.5233 143.108 66.2327 143.615 66.0433C144.123 65.8538 144.664 65.7694 145.205 65.7951C146.5 65.8484 147.768 66.1901 148.915 66.7951L149.855 64.9051C148.426 64.1781 146.847 63.7978 145.245 63.7951C144.356 63.7681 143.472 63.9168 142.641 64.2325C141.811 64.5483 141.051 65.0249 140.405 65.6351" fill="white"/>
<path d="M160.194 67.0349L161.894 71.1849H158.464L160.194 67.0349ZM156.384 75.7249L157.544 73.2149H162.844L164.064 75.7249H167.244L161.014 64.0049H159.134L153.314 75.7249H156.314" fill="white"/>
<path d="M171.015 74.5947L171.835 72.7047C173.126 73.4654 174.587 73.8917 176.085 73.9447C177.085 73.9447 179.675 73.7347 179.695 72.3747C179.695 69.6547 170.635 72.9647 170.695 67.5147C170.695 65.6547 172.465 63.8347 176.155 63.8747C177.96 63.8744 179.741 64.2956 181.355 65.1047L180.425 66.8947C179.119 66.2138 177.676 65.8377 176.205 65.7947C174.885 65.7947 173.255 66.1347 173.205 67.1147C173.205 69.9447 182.255 66.7447 182.205 72.1147C182.205 75.1847 178.495 75.8847 176.075 75.8747C172.615 75.7947 171.015 74.5947 171.015 74.5947Z" fill="white"/>
</g>
<defs>
<clipPath id="clip0_14443_438">
<rect width="161.97" height="12.41" fill="white" transform="translate(36.0146 63.7949)"/>
</clipPath>
</defs>
</svg>
